# xmcd CD database file
#
# Track frame offsets:
#	150
#	21397
#	36664
#	50185
#	68625
#	87682
#	103713
#	118649
#	132506
#	148471
#	165251
#	178995
#	196778
#
# Disc length: 2815 seconds
#
# Revision: 0
# Processed by: cddbd v1.5.2PL0 Copyright (c) Steve Scherf et al.
# Submitted via: CDex 1.70beta2
#
DISCID=cc0afd0d
DTITLE=Amanda Brecker - Brazilian Passion
DYEAR=2009
DGENRE=Jazz
TTITLE0=AiAiAiAiAi
TTITLE1=Felicidade
TTITLE2=Meant To Be
TTITLE3=Aqua De Beber
TTITLE4=On And On
TTITLE5=In The Sun
TTITLE6=Lembra De Mim
TTITLE7=Fly Me To The Moon
TTITLE8=Deny Deny
TTITLE9=Thirsty
TTITLE10=Nobre Vagabundo
TTITLE11=That Dance
TTITLE12=Autumn Leaves (Les Feuilles Mortes
EXTD=YEAR: 2009
EXTT0=
EXTT1=
EXTT2=
EXTT3=
EXTT4=
EXTT5=
EXTT6=
EXTT7=
EXTT8=
EXTT9=
EXTT10=
EXTT11=
EXTT12=
PLAYORDER=
